<svg width="70" height="70" viewBox="0 0 70 70" fill="none" xmlns="http://www.w3.org/2000/svg">
<g clip-path="url(#clip0_4_2044)">
<path d="M69.9873 66.8325L64.9263 21.5788C64.8101 20.5409 63.9326 19.756 62.8883 19.756H7.10523C6.06071 19.756 5.18297 20.541 5.06715 21.5791L0.0126919 66.8328C-0.0521125 67.4128 0.133277 67.9929 0.522378 68.4278C0.911476 68.8628 1.46724 69.1113 2.05089 69.1113H67.9493C68.5328 69.1113 69.089 68.8628 69.4778 68.4278C69.867 67.9929 70.0522 67.4125 69.9873 66.8325Z" fill="#E13A3A"/>
<path d="M69.9873 66.8325L64.9263 21.5788C64.8101 20.5408 63.9326 19.7559 62.8883 19.7559H35V69.1113H67.9493C68.5329 69.1113 69.0887 68.8625 69.4779 68.4275C69.867 67.9925 70.0522 67.4125 69.9873 66.8325Z" fill="#F74D4D"/>
<path d="M21.8068 34.5899C24.072 34.5899 25.9083 32.7536 25.9083 30.4884C25.9083 28.2232 24.072 26.3868 21.8068 26.3868C19.5415 26.3868 17.7052 28.2232 17.7052 30.4884C17.7052 32.7536 19.5415 34.5899 21.8068 34.5899Z" fill="#2E2E2E"/>
<path d="M48.1934 34.5898C50.4585 34.5898 52.2948 32.7536 52.2948 30.4883C52.2948 28.223 50.4585 26.3867 48.1934 26.3867C45.928 26.3867 44.0917 28.223 44.0917 30.4883C44.0917 32.7536 45.928 34.5898 48.1934 34.5898Z" fill="#1A1A1A"/>
<path d="M48.1934 31.8557C47.061 31.8557 46.1427 30.9374 46.1427 29.8048V16.1329C46.1427 9.98892 41.1441 4.99035 35 4.99035C28.8561 4.99035 23.8575 9.98892 23.8575 16.1329V29.8048C23.8575 30.9374 22.9393 31.8557 21.8068 31.8557C20.6742 31.8557 19.756 30.9374 19.756 29.8048V16.1329C19.756 7.72732 26.5945 0.888794 35 0.888794C43.4057 0.888794 50.2444 7.72732 50.2444 16.1329V29.8048C50.2444 30.9374 49.3261 31.8557 48.1934 31.8557Z" fill="#FFF4F4"/>
<path d="M35 0.888794V4.99035C41.1441 4.99035 46.1427 9.98892 46.1427 16.1329V29.8048C46.1427 30.9374 47.0607 31.8557 48.1934 31.8557C49.3258 31.8557 50.2441 30.9374 50.2441 29.8048V16.1329C50.2441 7.72732 43.4057 0.888794 35 0.888794Z" fill="#F6EFEA"/>
<path d="M16.1891 38.7164H19.1673C19.8885 38.7164 20.5715 38.7969 21.2164 38.9582C21.8697 39.1195 22.4382 39.3823 22.9218 39.7473C23.4054 40.1036 23.7873 40.5704 24.0673 41.1473C24.3558 41.7241 24.5 42.4241 24.5 43.2473C24.5 43.9769 24.36 44.6218 24.08 45.1818C23.8085 45.7332 23.4394 46.2 22.9727 46.5818C22.506 46.955 21.9673 47.2395 21.3564 47.4345C20.7455 47.6296 20.1049 47.7273 19.4345 47.7273H16.1891V38.7164ZM18.1745 45.8945H19.2054C19.6636 45.8945 20.0879 45.8478 20.4782 45.7545C20.877 45.6613 21.2206 45.5086 21.5091 45.2964C21.7976 45.0759 22.0224 44.7914 22.1836 44.4436C22.3533 44.0873 22.4382 43.6546 22.4382 43.1455C22.4382 42.7041 22.3533 42.3223 22.1836 42C22.0224 41.6691 21.8018 41.3977 21.5218 41.1855C21.2418 40.9732 20.9109 40.8164 20.5291 40.7145C20.1558 40.6041 19.7612 40.5491 19.3454 40.5491H18.1745V45.8945ZM33.4447 44.2527C33.4447 44.7873 33.3639 45.2795 33.2029 45.7291C33.0416 46.1787 32.7998 46.5691 32.4774 46.9C32.1634 47.2309 31.7688 47.4896 31.2937 47.6764C30.8185 47.8631 30.2712 47.9564 29.6519 47.9564C29.024 47.9564 28.4725 47.8631 27.9973 47.6764C27.5221 47.4896 27.1234 47.2309 26.801 46.9C26.487 46.5691 26.2494 46.1787 26.0882 45.7291C25.927 45.2795 25.8464 44.7873 25.8464 44.2527V38.7164H27.8319V44.1764C27.8319 44.4564 27.8743 44.715 27.9591 44.9527C28.0525 45.1904 28.1797 45.3982 28.341 45.5764C28.5021 45.746 28.6931 45.8818 28.9137 45.9836C29.1428 46.0769 29.3888 46.1236 29.6519 46.1236C29.9149 46.1236 30.1567 46.0769 30.3773 45.9836C30.5979 45.8818 30.7888 45.746 30.95 45.5764C31.1112 45.3982 31.2343 45.1904 31.3191 44.9527C31.4125 44.715 31.4591 44.4564 31.4591 44.1764V38.7164H33.4447V44.2527ZM35.28 38.7164H38.2836L40.3582 44.5964H40.3836L42.4709 38.7164H45.4618V47.7273H43.4764V40.8164H43.4509L41.0836 47.7273H39.5691L37.2909 40.8164H37.2654V47.7273H35.28V38.7164ZM47.2987 38.7164H50.6587C51.0491 38.7164 51.4395 38.746 51.8296 38.8055C52.2286 38.8564 52.5849 38.9668 52.8987 39.1364C53.2127 39.2977 53.4673 39.5268 53.6623 39.8236C53.8577 40.1205 53.955 40.5151 53.955 41.0073C53.955 41.5164 53.8109 41.9405 53.5223 42.28C53.2423 42.6109 52.8691 42.8486 52.4023 42.9927V43.0182C52.6995 43.0605 52.9668 43.1455 53.2041 43.2727C53.4504 43.3914 53.6582 43.5486 53.8278 43.7436C54.0059 43.9304 54.1418 44.1509 54.235 44.4055C54.3286 44.66 54.375 44.9314 54.375 45.22C54.375 45.695 54.2732 46.094 54.0696 46.4164C53.8659 46.7304 53.6031 46.985 53.2805 47.18C52.9582 47.375 52.5932 47.515 52.1859 47.6C51.7873 47.685 51.3886 47.7273 50.9896 47.7273H47.2987V38.7164ZM49.2841 42.3182H50.7223C50.875 42.3182 51.0236 42.3013 51.1678 42.2673C51.3205 42.2332 51.4564 42.1782 51.575 42.1018C51.694 42.0255 51.7873 41.9236 51.855 41.7964C51.9314 41.6691 51.9696 41.5164 51.9696 41.3382C51.9696 41.1514 51.9273 40.9987 51.8423 40.88C51.7659 40.7527 51.6641 40.655 51.5369 40.5873C51.4096 40.5195 51.2654 40.4727 51.1041 40.4473C50.9431 40.4132 50.7859 40.3964 50.6332 40.3964H49.2841V42.3182ZM49.2841 46.0473H51.0659C51.2187 46.0473 51.3714 46.0304 51.5241 45.9964C51.6854 45.9623 51.8296 45.9031 51.9569 45.8182C52.0841 45.7332 52.1859 45.6231 52.2623 45.4873C52.3473 45.3514 52.3896 45.186 52.3896 44.9909C52.3896 44.7787 52.3345 44.6091 52.2241 44.4818C52.1223 44.346 51.9909 44.2441 51.8296 44.1764C51.6686 44.1086 51.4945 44.0618 51.3078 44.0364C51.1213 44.0109 50.9473 43.9982 50.7859 43.9982H49.2841V46.0473Z" fill="white"/>
<path d="M13.5291 51.4436H15.12L18.1745 58.5073H18.2L21.28 51.4436H22.8327V60.4545H21.7636V52.8945H21.7381L18.5054 60.4545H17.8563L14.6236 52.8945H14.5981V60.4545H13.5291V51.4436ZM25.0756 51.4436H30.7392V52.4364H26.1447V55.2618H30.4338V56.2545H26.1447V59.4618H30.9683V60.4545H25.0756V51.4436ZM32.62 51.4436H34.9236C35.3563 51.4436 35.7849 51.4691 36.209 51.52C36.6418 51.5709 37.0277 51.6813 37.3672 51.8509C37.7067 52.0205 37.9823 52.2709 38.1945 52.6018C38.4067 52.9241 38.5127 53.3654 38.5127 53.9254C38.5127 54.5873 38.3132 55.1218 37.9145 55.5291C37.5158 55.9364 36.9641 56.195 36.26 56.3054L38.8181 60.4545H37.5072L35.0636 56.4073H33.689V60.4545H32.62V51.4436ZM33.689 55.4145H34.6436C34.9405 55.4145 35.2459 55.4059 35.56 55.3891C35.8823 55.3722 36.175 55.3169 36.4381 55.2236C36.7095 55.1304 36.9304 54.9859 37.1 54.7909C37.2781 54.5873 37.3672 54.2987 37.3672 53.9254C37.3672 53.6031 37.3036 53.3441 37.1763 53.1491C37.049 52.954 36.8795 52.8054 36.6672 52.7036C36.4636 52.5932 36.2304 52.5213 35.9672 52.4873C35.7127 52.4532 35.454 52.4364 35.1909 52.4364H33.689V55.4145ZM46.7132 53.3018C46.4418 52.9369 46.1064 52.6654 45.7077 52.4873C45.309 52.3005 44.8932 52.2073 44.4604 52.2073C43.9599 52.2073 43.4973 52.3091 43.0732 52.5127C42.6573 52.7164 42.2968 52.9922 41.9914 53.34C41.6859 53.6795 41.4482 54.0782 41.2786 54.5364C41.109 54.9859 41.0241 55.4569 41.0241 55.9491C41.0241 56.475 41.109 56.9673 41.2786 57.4254C41.4482 57.875 41.6818 58.2696 41.9786 58.6091C42.2841 58.94 42.6446 59.2031 43.0604 59.3982C43.4846 59.5932 43.9514 59.6909 44.4604 59.6909C45.0119 59.6909 45.5041 59.5849 45.9368 59.3727C46.3695 59.1522 46.7472 58.8382 47.0695 58.4309L47.8714 59.1054C47.4641 59.6486 46.9719 60.0473 46.395 60.3018C45.8264 60.5564 45.1818 60.6836 44.4604 60.6836C43.8155 60.6836 43.2132 60.5649 42.6532 60.3273C42.0932 60.0896 41.6054 59.7631 41.1895 59.3473C40.7823 58.9231 40.46 58.4223 40.2223 57.8454C39.9932 57.2686 39.8786 56.6364 39.8786 55.9491C39.8786 55.2873 39.989 54.6678 40.2095 54.0909C40.4386 53.514 40.7568 53.0132 41.1641 52.5891C41.5714 52.1649 42.055 51.8296 42.615 51.5836C43.175 51.3377 43.79 51.2145 44.4604 51.2145C45.0714 51.2145 45.6568 51.3249 46.2168 51.5454C46.7854 51.7659 47.2604 52.1268 47.6423 52.6273L46.7132 53.3018ZM49.3617 51.4436H50.4308V55.2618H55.2417V51.4436H56.3108V60.4545H55.2417V56.2545H50.4308V60.4545H49.3617V51.4436Z" fill="white"/>
</g>
<defs>
<clipPath id="clip0_4_2044">
<rect width="70" height="70" fill="white"/>
</clipPath>
</defs>
</svg>
